<svg xmlns="http://www.w3.org/2000/svg" width="24" height="24"><rect id="backgroundrect" width="100%" height="100%" x="0" y="0" fill="none" stroke="none"/><g class="currentLayer" style=""><title>Layer 1</title><path d="M12.32679733848255,3.829257376849654 c2.767725548028946,0 3.095982635498047,0.010366013288497927 4.189597037434577,0.060468410849571254 c2.8091896011829376,0.12784749722480784 4.121354116618633,1.4607440392374997 4.249201613843441,4.249201613843441 c0.05010239756107335,1.092750567495823 0.0596045764088631,1.421007654964924 0.0596045764088631,4.18873320299387 c0,2.768589382469654 -0.010366013288497927,3.095982635498047 -0.0596045764088631,4.18873320299387 c-0.12871133166551593,2.7858660712838175 -1.4374205093383794,4.121354116618633 -4.249201613843441,4.249201613843441 c-1.093614401936531,0.05010239756107335 -1.4201438205242158,0.060468410849571254 -4.189597037434577,0.060468410849571254 c-2.767725548028946,0 -3.095982635498047,-0.010366013288497927 -4.18873320299387,-0.060468410849571254 c-2.8161002767086027,-0.12871133166551593 -4.121354116618633,-1.4676547147631651 -4.249201613843441,-4.250065448284149 c-0.05010239756107335,-1.092750567495823 -0.060468410849571254,-1.4201438205242158 -0.060468410849571254,-4.18873320299387 c0,-2.767725548028946 0.011229847729206098,-3.095118801057339 0.060468410849571254,-4.18873320299387 c0.12871133166551593,-2.7875937401652333 1.4374205093383794,-4.121354116618633 4.249201613843441,-4.249201613843441 c1.093614401936531,-0.049238563120365196 1.421007654964924,-0.0596045764088631 4.18873320299387,-0.0596045764088631 zm0,-1.8684738952517512 c-2.815236442267895,0 -3.167680894076825,0.012093682169914253 -4.273388978183269,0.06219607973098761 c-3.7645904926061626,0.1727668881416322 -5.8567975080013275,2.2615185657739643 -6.02956439614296,6.02956439614296 c-0.05096623200178149,1.1065719185471536 -0.06305991417169574,1.459016370356083 -0.06305991417169574,4.274252812623978 c0,2.815236442267895 0.012093682169914253,3.1685447285175323 0.06219607973098761,4.274252812623978 c0.1727668881416322,3.7645904926061626 2.2615185657739643,5.8567975080013275 6.02956439614296,6.02956439614296 c1.1065719185471536,0.05010239756107335 1.459016370356083,0.06219607973098761 4.274252812623978,0.06219607973098761 c2.815236442267895,0 3.1685447285175323,-0.012093682169914253 4.274252812623978,-0.06219607973098761 c3.7611351548433305,-0.1727668881416322 5.858525176882744,-2.2615185657739643 6.0287005617022515,-6.02956439614296 c0.05096623200178149,-1.1057080841064453 0.06305991417169574,-1.459016370356083 0.06305991417169574,-4.274252812623978 c0,-2.815236442267895 -0.012093682169914253,-3.167680894076825 -0.06219607973098761,-4.273388978183269 c-0.16931155037879955,-3.7611351548433305 -2.260654731333256,-5.8567975080013275 -6.0287005617022515,-6.02956439614296 c-1.1065719185471536,-0.05096623200178149 -1.4598802047967914,-0.06305991417169574 -4.275116647064686,-0.06305991417169574 zm0,5.043065464854241 c-2.9396286017298703,0 -5.322947823643684,2.3833192219138146 -5.322947823643684,5.322947823643684 s2.3833192219138146,5.323811658084392 5.322947823643684,5.323811658084392 s5.322947823643684,-2.3833192219138146 5.322947823643684,-5.323811658084392 c0,-2.9396286017298703 -2.3833192219138146,-5.322947823643684 -5.322947823643684,-5.322947823643684 zm0,8.778285586476327 c-1.9082102795243263,0 -3.4553377628326416,-1.546263648867607 -3.4553377628326416,-3.4553377628326416 c0,-1.9082102795243263 1.5471274833083153,-3.4553377628326416 3.4553377628326416,-3.4553377628326416 s3.4553377628326416,1.5471274833083153 3.4553377628326416,3.4553377628326416 c0,1.9090741139650347 -1.5471274833083153,3.4553377628326416 -3.4553377628326416,3.4553377628326416 zm5.533723427176476,-10.23211895018816 c-0.6876122148036959,0 -1.2447854290604592,0.5571732142567637 -1.2447854290604592,1.2439215946197508 s0.5571732142567637,1.2439215946197508 1.2447854290604592,1.2439215946197508 c0.6867483803629878,0 1.2430577601790431,-0.5571732142567637 1.2430577601790431,-1.2439215946197508 s-0.5563093798160553,-1.2439215946197508 -1.2430577601790431,-1.2439215946197508 z" id="svg_1" class="selected" fill="#08fdd8" fill-opacity="1"/></g></svg>